<?xml version="1.0" encoding="utf-8"?>
<!-- Generator: Adobe Illustrator 23.0.1, SVG Export Plug-In . SVG Version: 6.00 Build 0)  -->
<svg version="1.1" id="Layer_1" xmlns="http://www.w3.org/2000/svg" xmlns:xlink="http://www.w3.org/1999/xlink" x="0px" y="0px"
	 viewBox="0 0 612 792" style="enable-background:new 0 0 612 792;" xml:space="preserve">
<style type="text/css">
	.st0{fill:#00334D;}
	.st1{fill:#F72349;}
	.st2{font-family:'ArialMT';}
	.st3{font-size:12px;}
	.st4{fill:#FB835D;}
	.st5{font-family:'Montserrat-Bold';}
	.st6{font-size:60px;}
	.st7{fill:#F6D76F;}
</style>
<rect x="122" y="296.2" class="st0" width="297" height="259.8"/>
<circle class="st1" cx="270.9" cy="428.9" r="124.5"/>
<circle class="st0" cx="270.9" cy="428.9" r="121.8"/>
<image style="overflow:visible;enable-background:new    ;" width="523" height="530" xlink:href="star.png"  transform="matrix(0.3039 0 0 0.3039 282.921 429.5286)">
</image>
<text class="st2 st3"> </text>
<text class="st2 st3"> </text>
<image style="overflow:visible;enable-background:new    ;" width="128" height="128" xlink:href="animals-target.png"  transform="matrix(1.7956 0 0 1.7956 144.8635 324.2563)">
</image>
<text transform="matrix(1.0047 0 0 1 128.2002 345.8379)" class="st4 st5 st6">FIND</text>
<text transform="matrix(1.0047 0 0 1 149.1001 396)" class="st4 st5 st6">ME</text>
<image style="overflow:visible;enable-background:new    ;" width="183" height="76" xlink:href="7AB8A92E80064E1F.png"  transform="matrix(0.6575 0 0 0.6016 245.8398 155.0279)">
</image>
<image style="overflow:visible;enable-background:new    ;" width="121" height="83" xlink:href="7AB8A92E80064E18.png"  transform="matrix(0.5363 0 0 0.5363 261.1843 201.8783)">
</image>
<rect x="39" y="133" class="st7" width="56" height="32"/>
</svg>
